<?xml version="1.0" encoding="UTF-8"?>
<svg id="Layer_1" data-name="Layer 1" xmlns="http://www.w3.org/2000/svg" xmlns:xlink="http://www.w3.org/1999/xlink" viewBox="0 0 1891.75 1081">
  <defs>
    <style>
      .cls-1 {
        fill: url(#linear-gradient-3);
      }

      .cls-2 {
        fill: url(#linear-gradient-2);
      }

      .cls-3 {
        fill: url(#linear-gradient);
      }

      .cls-4 {
        fill: #92bde0;
      }

      .cls-5 {
        fill: #d8e5f2;
      }

      .cls-6 {
        fill: #b5d1e9;
      }
    </style>
    <linearGradient id="linear-gradient" x1="961.18" y1="642.23" x2="917" y2="1147.02" gradientUnits="userSpaceOnUse">
      <stop offset=".17" stop-color="#eef3f9"/>
      <stop offset="1" stop-color="#7facd8"/>
    </linearGradient>
    <linearGradient id="linear-gradient-2" x1="1599.48" y1="546.66" x2="1706.62" y2="911.28" gradientUnits="userSpaceOnUse">
      <stop offset=".28" stop-color="#e0eaf4"/>
      <stop offset="1" stop-color="#95b9de"/>
    </linearGradient>
    <linearGradient id="linear-gradient-3" x1="980.5" y1="-89.74" x2="887.91" y2="746.87" gradientUnits="userSpaceOnUse">
      <stop offset=".48" stop-color="#fafbfc"/>
      <stop offset=".93" stop-color="#c5dcee"/>
      <stop offset="1" stop-color="#77afdb"/>
    </linearGradient>
  </defs>
  <g id="Generative_Object" data-name="Generative Object">
    <path class="cls-5" d="M1891.75,446.19v2.82c-17.12,3.44-31.2,8.05-43.63,20.41-4.69,4.66-18.99,26.62-21.11,32.37-.17.47,2.07,7.57,1.41,9.85-5.77,19.81-15.82,4.91-21.82,7.74-.97.46-1.85,5.17-2.82,5.63-3.05,1.45-8.12-2.36-11.26-1.41-27.76,8.39-29.48,18.07-45.75,35.89-20.36,22.31-28.71,3.46-48.56,4.93-36.41,2.69-38.08,37.96-54.19,53.49-5.82,5.61-12.13,8.5-20.41,7.04,4.95-4.71-.73-4.11-.7-4.93.4-11.21,15.52-32.49,23.93-40.12,22.12-20.04,30.3-14.54,54.19-19.71,3.74-.81,11.08-7.08,16.89-5.63-10.06-3.44,15.7-9.41,19.71-8.45.39.09,3.62,6.33,5.63,5.63,2.44-.85,18.63-32.84,30.97-40.82,14.82-9.58,33.85-5.39,36.6-7.04,1.52-.92,13.77-28.31,16.19-31.67,14.26-19.87,41.11-28.33,64.75-26.04Z"/>
    <path class="cls-6" d="M116.83,564.43c.99,1.34,4.42,4.65,3.52,5.63-5.85,2.57-13.43,3.63-19,5.63-15.59,1.97-16.9-12.19-27.45-21.11-21.08-17.84-49.02-16.56-73.9-8.45v-21.11c42.03-12.84,90.95,4.53,116.83,39.41Z"/>
    <path class="cls-5" d="M101.34,575.69c-.4.14-1.94,4.57-6.33,5.63-.31.07-3.59-3.05-5.63-2.82s-4.66,4.87-8.45,4.22c-1.77-.3-18.09-22.85-23.93-26.74-17.7-11.8-37.97-11.1-57.01-2.82v-7.04c24.88-8.11,52.81-9.39,73.9,8.45,10.55,8.92,11.85,23.08,27.45,21.11Z"/>
    <path class="cls-6" d="M1646.84,579.91c-8.41,7.62-23.53,28.9-23.93,40.12-.03.82,5.65.22.7,4.93,8.28,1.46,14.59-1.43,20.41-7.04-2.75,12.97-13.88,6.83-23.93,12.67-22.85-7.17-49.26,1.81-63.34,21.11-3.49.43-6.32,4.07-7.74,4.22-.44.05-2.38-2.86-2.82-2.82-9.58,1-17.17-1.69-24.63,1.41-2.76-4.72-20.19-11.28-27.45-12.67-37.06-7.08-59.59,7.04-82.34,34.49-3.29,3.97-.28,7.11-9.85,14.78-8-8.26-12.58.01-13.37,0-2.39-.04-10.87-5.1-12.67-4.22-.6.29-.45,4.83-9.15,8.45-19.99,8.31-38.39,12.13-47.86,35.19-2.23.2-4.02-.04-4.22,0,2.86-7.44-7.31,2.28-8.45.7,5.36-30.58,42.9-48.42,71.08-45.75l-12.67-7.04c16.96,2.85,19.46,12.08,21.11-9.85-17.02-2.72-35.95-2.05-52.08,4.22-2.18.85-25.75,14.3-26.74,15.48-3.49,4.17,3.54,5.97,3.52,6.33-.05.85-10.6,9.02-12.67,11.26-.17.18,2.29,2.98-.7,4.93-3.99,2.6-7.65-4.51-14.78-.7-1.41-2.75,15.68-18.04,9.15-19-7.81-.59-9.22,5.5-9.85,5.63-.49.1-2.1-3.38-4.22-2.82-3.6.95-19.43,6.37-20.41,9.15-.15.41,3.26,1.99,2.82,4.22-.24,1.18-4.69,3.1-4.22,5.63.23,1.22,15.63,14.04,18.3,16.89.22.24.87,5.7,1.41,6.33l-22.52,12.67c-.9-5.18-25.94-28.72-28.85-29.56-7.77-2.22-18.63,7.01-19.71,7.04-.41.01-4.46-4.76-7.04-4.22-4.2.88-20.27,10.23-22.52,9.85-3.63-.62-10.53-13.54-11.26-14.08-11.91-8.73-38.23-19.04-55.6-18.3-2.97-15.45,3.83-11.69,5.63-14.78,1.23-2.12-1.54-4.04-1.41-4.22,4.63-6.33,11.95-8.75,15.48-11.96,5.04,7.54,7.21.1,10.56,0,4.5-.13,4.3,3.26,8.45,2.82,8.14-.87,8.5-7.93,12.67-9.85,9.19-4.23,10.57,4.04,11.26,4.22,2.66.71,9.04-6.81,9.85-7.04,9.47-2.66,10.61,5.12,14.08,5.63,10.74,1.58,32.1-18.48,43.63-21.11,4.87-1.11,10.7,2.95,11.26,2.82,2.06-.5,6.14-7.32,9.85-8.45,4.58-1.39,12.24,2.6,15.48-2.82,8.52,2.57-.93,7.24-.7,7.74,1.77,3.82,23.32,2.9,27.45,3.52.9.13,4.62,5.76,8.45,5.63.47-.02,5.53-3.86,8.45-4.22,1.25-.16,4.03,3.26,5.63,2.82,1.29-.36,14.61-9.56,14.78-10.56.06-.37-4.57-.33-4.22-4.22,1.14-12.71,22.43-15.48,28.15-19-.79,10.21,8.55-.73,9.15,8.45,5.23,1.7,9.23-8.14,9.85-8.45,6.73-3.33,16.59,6.37,26.74,4.22,6.35-1.34,7.46-9.76,9.85-11.26,2-1.25,40.99-13.58,43.63-14.08,6.43-1.2,21.45,2.26,29.56,0,1.89-.53,6.23-9.19,10.56-4.93.37.36,1.35,8.45,4.93,9.15,2.16.42,13.55-5.63,15.48-5.63,2.33,0,10.63,5.57,11.26,5.63,3.64.33,11.4-5.06,14.08-5.63,4.15-.88,10.71,1.53,11.26,1.41,8.19-1.83,11.06-14.55,16.89-16.89,2.29-.92,13.3-.49,15.48-1.41,7.97-3.36,8.37-5,18.3-8.45,3.4-1.18,13.29-7.01,14.08-7.04.93-.03,15.38,7.91,16.19,9.15s-2.7,12.38,7.04,9.15Z"/>
    <path class="cls-5" d="M1107.74,699.55c17.36-.74,43.68,9.57,55.6,18.3.73.53,7.63,13.46,11.26,14.08,2.25.38,18.32-8.97,22.52-9.85,2.58-.54,6.63,4.23,7.04,4.22,1.07-.03,11.94-9.26,19.71-7.04,2.91.83,27.95,24.38,28.85,29.56-12.18,9.27-24.88,21.36-33.08,35.19-18.18-12.3-31.98-18.32-54.19-19.71-24.92-1.55-39.19,4.99-58.41,21.11-6.97-5.75-12.51-12.15-20.41-16.89.47-4.56,8.64-13.61,11.96-15.48,2.66-1.5,12.11-1.1,12.67-1.41,2.48-1.4,14.02-19.76,20.41-21.82-6.86-11.22-21.57-7.78-16.19-21.82l-23.22-2.82c3.25-1.24,4.84-5.18,15.48-5.63Z"/>
    <path class="cls-5" d="M1362.51,616.51c-5.73,3.52-27.01,6.29-28.15,19-.35,3.89,4.28,3.85,4.22,4.22-.17.99-13.49,10.2-14.78,10.56-1.6.45-4.38-2.97-5.63-2.82-2.91.37-7.97,4.21-8.45,4.22-3.83.13-7.54-5.5-8.45-5.63-4.13-.61-25.68.3-27.45-3.52-.23-.5,9.22-5.18.7-7.74-3.25,5.41-10.9,1.42-15.48,2.82-3.71,1.13-7.79,7.94-9.85,8.45-.56.14-6.39-3.93-11.26-2.82-11.54,2.64-32.89,22.69-43.63,21.11-3.46-.51-4.61-8.29-14.08-5.63-.81.23-7.2,7.74-9.85,7.04-.69-.18-2.07-8.45-11.26-4.22-4.17,1.92-4.53,8.98-12.67,9.85-4.15.44-3.95-2.94-8.45-2.82-3.34.1-5.52,7.54-10.56,0,29.44-26.79,26.33-49.31,73.9-38,3.41.81,13.6-1,15.48,0,1.52.81.71,8.16,4.22,8.45,1.29.11,15.59-15.36,19.71-16.89,5.56-2.06,15.42.24,21.11-1.41,3.99-1.15,7.83-6.84,8.45-7.04,1.52-.49,9.38,1.57,9.85,1.41,8.32-2.83,23.7-13.2,29.56-15.48,6.63-2.59,13.09-6.08,20.41-3.52-5.78,3.27-11.61,16.45-2.11,16.19,3.8-.1,3.48-4.16,4.22-4.22,14.96-1.17,8.45,9.76,23.22-3.52.24-.21-3.72-2.46-2.11-3.52l40.82-14.08,7.74,4.93c-5.17,7.95-19.27,7.44-24.63,10.56-1.25.72-10.68,11.55-14.78,14.08Z"/>
    <path class="cls-6" d="M706.59,693.92c-28.5-7.18-55.23-22.83-87.27-21.11,21.87-17.56,64.58-12.55,83.05,9.15l4.22,11.96Z"/>
    <path class="cls-4" d="M512.35,681.26c-6.1,2.77-7.18,4-14.78,7.04-6.07,2.42-5.59,7.89-14.78,4.22,5.8-4.22,7.28-15.16.7-19.71-11.89-8.22-33.52,6.78-40.82-15.48-.53-.35-12.02.56-9.85-4.22,9.01,7.76,23.8-1.12,32.37,1.41,1.82.54,2.39,5.08,4.22,5.63,7.79,2.33,17.59-1.77,22.52,0,2.28.82-1.34,3.51,0,4.22,2.72,1.45,9.42,2.54,9.85,2.82,1.24.79-.16,3.85,2.82,5.63.27.16,4.35-4.66,6.33-.7l1.41,9.15Z"/>
    <path class="cls-5" d="M1314.65,730.52c.21-.04,1.99.2,4.22,0,4.01-.36,10.03.59,14.08,1.41,34.13,6.93,61.15,52.03,72.49,53.49,3.96.51,9.29-2.85,9.85-2.82,24.64,1.7,34.11,5.31,52.78,26.04,1.22,1.35,3.49,10.27,6.33,10.56,1.1.11,13.03-8.71,19.71-9.85,22.84-3.91,41.84,3.31,59.82,16.89,5.65,4.27,10.37,19.66,21.11,12.67.22.22,4.71,2.73,5.63,2.82-4.85,1.48-15.97,11.45-20.41,9.85-1.48-9.26-10.63-6.61-11.26-7.04-4.16-2.85-7.89-10.55-11.26-12.67-7.82-4.91-45.54-17.09-53.49-15.48-4.13.84-13.11,9.58-18.3,8.45-2.1-.46-12.92-16.53-16.89-19.71-2.36-1.89-18.88-10.84-21.11-11.26-6.13-1.16-24.78,1.98-26.74,1.41-.43-.13-3.33-6.38-5.63-7.04-5-1.43-14.72,3.63-16.89,2.82-2.45-.92-6.64-17.24-9.85-18.3-.34-.11-4.16,2.99-7.04,1.41-21.31-11.74-20.42-24.7-53.49-32.37-9.59-2.23-22.11.73-28.85-2.82,6.64-4.55,18.65-.49,23.22-1.41,3.79-.76,6.5-5.98,11.96-7.04Z"/>
    <path class="cls-4" d="M1314.65,730.52c-5.47,1.06-8.17,6.28-11.96,7.04-4.57.92-16.58-3.14-23.22,1.41-1.98-1.04-2.02-.26-4.22-2.82-.54-.63-1.19-6.1-1.41-6.33-2.67-2.86-18.07-15.67-18.3-16.89-.47-2.53,3.99-4.45,4.22-5.63.44-2.23-2.96-3.81-2.82-4.22.98-2.78,16.81-8.2,20.41-9.15,2.13-.56,3.73,2.92,4.22,2.82.64-.13,2.04-6.22,9.85-5.63,6.53.96-10.56,16.25-9.15,19,7.13-3.8,10.79,3.3,14.78.7,3-1.95.53-4.74.7-4.93,2.07-2.24,12.62-10.41,12.67-11.26.02-.36-7.01-2.16-3.52-6.33.99-1.18,24.57-14.64,26.74-15.48,16.13-6.27,35.06-6.94,52.08-4.22-1.65,21.93-4.16,12.71-21.11,9.85l12.67,7.04c-28.18-2.67-65.72,15.17-71.08,45.75,1.13,1.58,11.31-8.15,8.45-.7Z"/>
    <path class="cls-6" d="M1758.03,890.98c-2.82.55-13.99,5.62-14.78,5.63-1.23.02-17.36-11.43-21.11-12.67-2.82-.93-33.37-8.23-35.19-8.45-10.54-1.26-22.19,7.43-23.93,7.04-1.99-.45-4.33-6.86-7.04-8.45-5.81-3.4-8.09-1.17-8.45-1.41-11.88-8.11-19.25-18.72-34.49-26.74-2.14-8.02,6.24-5.54,10.56-4.22,8.83,2.7,19.79,19.02,25.34,22.52.52.33,6.28-1.44,9.85,4.22,45.58-5.6,53.05-16.71,90.08,14.08.59.49,7.11-2.58,9.15,8.45Z"/>
    <path class="cls-6" d="M1838.26,885.35c-2.43.17-7.3,4.19-7.74,4.22-14,1.08-13.64-7.57-32.37,1.41-11.51,5.51-1.74,14.23-20.41,1.41-3.27-2.25-4.75-3.57-9.15-4.22l1.41-2.82c6.28,1.29,11.4-4.64,15.48-5.63,2.17-.53,3.71,2.9,4.22,2.82.56-.1,1.3-4.07,2.82-4.22,3.04-.31,13.5-.23,16.89,0,.35.02,2.26,3.92,5.63,4.22,9.41.84,12.47-8.21,23.22,2.82Z"/>
    <g>
      <path class="cls-3" d="M101.34,575.69c5.57-2,13.15-3.06,19-5.63.9-.98-2.52-4.29-3.52-5.63,6.88-2.08,32.98-4.46,37.3-1.41,4.73,3.34.45,6.14.7,6.33,7.49,5.56,13.61,4.35,19,6.33,6.83,2.51,29.74,11.01,33.78,14.08,6.07,4.6,12.73,18.83,19.71,23.93,8.9,6.5,22.41,4.27,30.97,9.85,3.65,2.38,5.56,8.28,8.45,9.85,4.76,2.59,9.32-.41,12.67,1.41,13.85,7.51,33.26,24.21,46.45,32.37,4.43,2.74,18.81,5.33,24.63,9.85,6.08,4.72,9.14,15.44,9.85,16.19,1.66,1.72,6.31,1.88,11.26,7.04.37.39,2.98,9.07,4.22,9.85,9.46,5.96,15.57-3.78,20.41-4.93,10.56-2.5,28.02-5.7,38-7.04,14.93-2.01,34.41,4.67,48.56-5.63,9.19,3.66,8.71-1.8,14.78-4.22,7.6-3.03,8.68-4.27,14.78-7.04,23.32-10.6,29.55-14.83,55.6-8.45.83.2,10.65,6.92,12.67,7.04,5.36.3,13.28-7.73,18.3-5.63.97.41-3.18,5.58,2.82,4.22,3.83-.87,9.37-5.19,17.59-5.63,32.04-1.72,58.77,13.93,87.27,21.11,8.45,2.13,12.5,1.44,21.82,2.82,2.36.35,10.63,5.6,11.26,5.63,3.24.14,8.25-4.34,9.85-4.22,10.62.79,9.88,5.71,25.34,1.41.21-.06,2.25,2.65,4.22,1.41.68-.43,6.4-11.54,9.85-12.67,11.58-3.77,33.66,7.52,36.6,7.04,3.28-.54,19.22-15,32.37-18.3,26.65-6.68,44.32,4.86,59.12,2.82.45-.06,4.26-3.99,5.63-4.22,37.34-6.38,62.75-2.12,91.49,23.93,3.92,3.55,12.29,17.37,15.48,18.3.67.19,5.21-8.82,9.85-9.85,11.21-2.48,26.45,5.83,33.78,5.63,2.55-.07,14.89-6.87,19-8.45l23.22,2.82c-5.38,14.04,9.33,10.59,16.19,21.82-6.39,2.06-17.93,20.42-20.41,21.82-.56.31-10.01-.09-12.67,1.41-3.32,1.88-11.49,10.92-11.96,15.48-6.72-4.03-19.41-9.25-27.45-9.85-7.12-.53-25.44,4.59-26.74,4.22-2.05-.58-20.96-28.97-33.78-22.52,12.37,3.71,24.69,10.72,31.67,21.82.35.55-4.02,7.14,3.52,9.15,4.93,1.31,9.34-2.84,9.85-2.82,14.53.82,27.15,1.7,39.41,9.85,2.78,1.85,14.39,15.48,15.48,15.48.95,0,4.51-6.17,7.04-5.63,1.95.42,3.21,6.14,3.52,6.33,5.3,3.32,12.5-9.92,17.59-13.37,3.08-2.09,23.96-13.29,26.74-14.08,3.49-.99,9.96,2.37,11.96-2.82,22.21,1.38,36.02,7.4,54.19,19.71,8.19-13.83,20.9-25.92,33.08-35.19l22.52-12.67c2.2,2.56,2.25,1.77,4.22,2.82,6.74,3.55,19.26.59,28.85,2.82,33.07,7.67,32.17,20.64,53.49,32.37,2.88,1.59,6.7-1.52,7.04-1.41,3.21,1.06,7.4,17.38,9.85,18.3,2.17.81,11.89-4.24,16.89-2.82,2.3.66,5.2,6.91,5.63,7.04,1.97.58,20.62-2.57,26.74-1.41,2.23.42,18.75,9.37,21.11,11.26,3.97,3.18,14.79,19.25,16.89,19.71,5.19,1.13,14.16-7.61,18.3-8.45,7.95-1.61,45.67,10.57,53.49,15.48,3.37,2.12,7.1,9.82,11.26,12.67.63.43,9.78-2.22,11.26,7.04,4.44,1.59,15.56-8.37,20.41-9.85,15.86-4.85,20.48-2.04,32.37,4.22,15.24,8.02,22.61,18.64,34.49,26.74.35.24,2.63-1.99,8.45,1.41,2.71,1.59,5.05,7.99,7.04,8.45,1.74.4,13.38-8.3,23.93-7.04,1.82.22,32.37,7.52,35.19,8.45,3.75,1.24,19.88,12.69,21.11,12.67.79-.01,11.96-5.08,14.78-5.63l19.71,1.41c18.67,12.83,8.9,4.1,20.41-1.41,18.74-8.98,18.37-.32,32.37-1.41.44-.03,5.31-4.05,7.74-4.22,4.58-.32,10.26-.44,14.78,0,.7.07,3.59,4.21,4.22,4.22.45,0,4.96-5.43,7.04-5.63,10.2-1,17.88,3.42,27.45,4.22v192.83H0v-527.83c19.04-8.28,39.31-8.99,57.01,2.82,5.84,3.9,22.16,26.44,23.93,26.74,3.79.64,6.36-3.99,8.45-4.22s5.32,2.89,5.63,2.82c4.39-1.06,5.94-5.49,6.33-5.63Z"/>
      <path class="cls-5" d="M1086.63,768.52c7.9,4.75,13.44,11.14,20.41,16.89,19.22-16.13,33.49-22.67,58.41-21.11-2.01,5.19-8.47,1.83-11.96,2.82-2.78.79-23.67,11.99-26.74,14.08-5.09,3.45-12.3,16.69-17.59,13.37-.31-.19-1.57-5.91-3.52-6.33-2.52-.54-6.09,5.63-7.04,5.63-1.09,0-12.7-13.63-15.48-15.48-12.26-8.15-24.88-9.03-39.41-9.85-.51-.03-4.92,4.13-9.85,2.82-7.54-2.01-3.17-8.59-3.52-9.15-6.98-11.1-19.3-18.11-31.67-21.82,12.82-6.44,31.73,21.94,33.78,22.52,1.3.37,19.62-4.75,26.74-4.22,8.04.6,20.73,5.82,27.45,9.85Z"/>
      <path class="cls-6" d="M1334.36,999.36c-9.61-.58-12.75,4.14-14.78,4.22-.41.02-6.6-4.22-7.04-4.22-5.71-.09-6.04,3.34-11.26,2.82-3.2-.32-9.33-8.4-16.19-6.33,7.07-8.83,14.12-2.22,21.82-3.52.5-.08,7.94-5.56,8.45-5.63,4.5-.62,10.87,1.8,16.89,1.41,1.92-.13,5.94-6.05,9.85-4.22,2.22,1.04,2.94,6.57,2.11,7.74-.45.63-13.59-1.1-9.85,7.74Z"/>
      <path class="cls-4" d="M1540.57,1034.55c4.3.64,10.64,11.65,15.48,14.08-5.26-1.35-7.74-5.01-14.08-4.22-12.93,1.6-9.28,10.43-26.04,2.11-.44-.22.81-4.07-.7-4.93-3.1-1.75-21.42,2.57-26.04-3.52,15.24,8.46,39.96-5.22,51.38-3.52Z"/>
      <path class="cls-6" d="M346.96,976.84c.9-.17,17.44-.31,18.3,0,10.64,3.79-23.89,13.71-25.34,12.67-3.35-4.39,2.91-11.9,7.04-12.67Z"/>
      <path class="cls-5" d="M534.17,703.78c1.61-.33,9.01-.37,9.15,2.11-15.68,18.27-24.14,1.01-9.15-2.11Z"/>
      <path class="cls-4" d="M1431.48,1035.96c-3.32.2-10.05-.15-10.56,0-4.24,1.27-9.21,15.09-19,9.15,4-.65,14.12-11.71,16.19-11.96.68-.08,8.94,2.81,13.37,2.82Z"/>
      <path class="cls-4" d="M1437.11,1035.96c.53.05,6.76-2.34,10.56-1.41,1.4.34,0,3.78,1.41,4.22,3.76,1.18,10.58-.87,14.78,4.93-4.74-2.12-11.82-2.15-16.19-3.52-1.68-.53.38-3.08-10.56-4.22Z"/>
      <path class="cls-4" d="M1470.89,1041.59c3.21-.25,9.16-4.08,12.67.7-4.21-.5-8.47-.41-12.67-.7Z"/>
      <path class="cls-4" d="M1568.01,1040.18c2.88-1.07-.19-5.17,7.04,2.11-4.13,2.42-3.13-1.45-7.04-2.11Z"/>
      <path class="cls-4" d="M1373.77,1059.89c-1.39.08-7,3.34-9.85.7,2.93-1.42,6.67-.49,9.85-.7Z"/>
      <path class="cls-4" d="M1380.81,1059.89c-4.24.55-4.34-.16-7.04,0,3.09-.21,4.14-.08,7.04,0Z"/>
      <path class="cls-4" d="M1589.13,1037.37c-2.47.75-5.33,2.91-8.45.7,2.43-1.4,5.72-.5,8.45-.7Z"/>
      <path class="cls-4" d="M1437.11,1035.96c-.28-.03-4.32,0-5.63,0,2.5-.15,3.05-.27,5.63,0Z"/>
      <path class="cls-4" d="M1470.89,1041.59c-.85.07-3.5,2.1-5.63-.7,2.22-2.29,4.25.61,5.63.7Z"/>
      <path class="cls-6" d="M1275.95,1000.77c1.17.13,4.8-.51,4.93.7.09.88-6.35,1.68-4.93-.7Z"/>
      <path class="cls-4" d="M1395.59,1048.63c.16-.02,2.84,2.05,1.41,2.82-3.62,1.92-4.06-2.51-1.41-2.82Z"/>
      <path class="cls-4" d="M1380.81,1059.89c.28-.04,3.15-3.31,5.63-.7-1.4,1.2-3.83.75-5.63.7Z"/>
      <path class="cls-6" d="M1334.36,999.36c.12.28,3.38-.67,4.22.7-2.65,2.5-4.01-.69-4.22-.7Z"/>
      <path class="cls-4" d="M1589.13,1037.37c.21-.02,1.55-3.19,4.22-.7-1.02,1.44-2.99.33-4.22.7Z"/>
      <path class="cls-4" d="M1568.01,1040.18c-.2.07-2.04,3.25-4.22.7.89-1.05,2.95-.92,4.22-.7Z"/>
    </g>
    <path class="cls-5" d="M1521.56,654.51c-9.25,3.84-10.28,13.33-21.82,11.26-9.13-1.63-12.56-10.72-29.56-5.63-7.98,2.39-18.5,13.82-19.71,14.08-2.21.46-3.35-3.95-8.45-2.82-3.76.84-18.77,22.01-22.52,23.93-6.36,3.25-28.16,2.65-36.6,5.63,5.17-2.51,14.69-6.4,19-9.85,9.58-7.67,6.56-10.81,9.85-14.78,22.75-27.45,45.28-41.56,82.34-34.49,7.25,1.39,24.69,7.94,27.45,12.67Z"/>
    <path class="cls-5" d="M1620.09,630.58c-3.05,1.77-13.76,13.97-14.78,14.08-.83.08-7.74-4.88-15.48-2.82-.59.16-7.19,6.74-8.45,7.04-7.36,1.75-17,1.88-24.63,2.82,14.08-19.3,40.49-28.28,63.34-21.11Z"/>
    <path class="cls-6" d="M1366.73,695.33c-3.3,16.63-30.7,17.63-33.78,36.6-4.05-.82-10.07-1.77-14.08-1.41,9.46-23.05,27.87-26.88,47.86-35.19Z"/>
    <path class="cls-5" d="M1575.05,838.9c-10.74,6.99-15.46-8.4-21.11-12.67,5.15-16.82,15.79,7.24,21.11,12.67Z"/>
    <g>
      <path class="cls-2" d="M1891.75,888.17c-9.56-.8-17.25-5.23-27.45-4.22-2.07.2-6.59,5.64-7.04,5.63-.63,0-3.52-4.15-4.22-4.22-4.52-.44-10.2-.32-14.78,0-10.75-11.02-13.82-1.98-23.22-2.82-3.37-.3-5.28-4.2-5.63-4.22-3.39-.23-13.85-.31-16.89,0-1.52.15-2.26,4.13-2.82,4.22-.51.09-2.05-3.34-4.22-2.82-4.08.99-9.2,6.92-15.48,5.63l-1.41,2.82c4.4.66,5.88,1.97,9.15,4.22l-19.71-1.41c-2.04-11.02-8.55-7.95-9.15-8.45-37.04-30.78-44.51-19.68-90.08-14.08-3.57-5.66-9.33-3.89-9.85-4.22-5.54-3.5-16.5-19.82-25.34-22.52-4.31-1.32-12.7-3.8-10.56,4.22-11.9-6.26-16.51-9.08-32.37-4.22-.92-.09-5.41-2.59-5.63-2.82-5.33-5.43-15.97-29.49-21.11-12.67-17.98-13.58-36.98-20.81-59.82-16.89-6.67,1.14-18.61,9.96-19.71,9.85-2.85-.29-5.12-9.21-6.33-10.56-18.67-20.73-28.14-24.34-52.78-26.04-.56-.04-5.89,3.32-9.85,2.82-11.34-1.45-38.36-46.56-72.49-53.49,3.08-18.96,30.48-19.96,33.78-36.6,8.7-3.62,8.55-8.15,9.15-8.45,1.79-.87,10.28,4.19,12.67,4.22.79.01,5.37-8.26,13.37,0-4.31,3.45-13.83,7.34-19,9.85,8.44-2.98,30.24-2.38,36.6-5.63,3.75-1.92,18.76-23.09,22.52-23.93,5.09-1.13,6.24,3.28,8.45,2.82,1.21-.25,11.73-11.69,19.71-14.08,17-5.09,20.43,4,29.56,5.63,11.54,2.07,12.56-7.42,21.82-11.26,7.46-3.1,15.05-.41,24.63-1.41.44-.05,2.38,2.86,2.82,2.82,1.42-.15,4.25-3.79,7.74-4.22,7.63-.93,17.28-1.07,24.63-2.82,1.25-.3,7.86-6.88,8.45-7.04,7.74-2.06,14.65,2.9,15.48,2.82,1.02-.1,11.73-12.3,14.78-14.08,10.04-5.83,21.17.3,23.93-12.67,16.11-15.53,17.78-50.8,54.19-53.49,19.85-1.47,28.2,17.38,48.56-4.93,16.27-17.82,17.98-27.51,45.75-35.89,3.14-.95,8.21,2.86,11.26,1.41.97-.46,1.85-5.17,2.82-5.63,6-2.83,16.04,12.07,21.82-7.74.67-2.29-1.58-9.39-1.41-9.85,2.12-5.76,16.43-27.72,21.11-32.37,12.43-12.36,26.51-16.97,43.63-20.41v439.16Z"/>
      <path class="cls-5" d="M1380.81,710.81c-.12-.76-4.55-3.48-.7-7.04,1.55.75.25,5.27.7,7.04Z"/>
      <path class="cls-5" d="M1382.22,717.85c-1.01-3.2-.94-4.01-1.41-7.04.71,2.76,1.12,4.1,1.41,7.04Z"/>
      <path class="cls-5" d="M1382.22,717.85c.02.21,3.2,1.59.7,4.22-1.45-1.02-.32-3.01-.7-4.22Z"/>
      <path class="cls-5" d="M1715.1,572.87h1.41c2.78-.22,2.78,1.63,0,1.41l-1.41-1.41Z"/>
    </g>
    <g>
      <path class="cls-1" d="M0,525.02V0h1891.75v446.19c-23.64-2.3-50.48,6.17-64.75,26.04-2.41,3.36-14.66,30.75-16.19,31.67-2.74,1.65-21.78-2.55-36.6,7.04-12.33,7.98-28.53,39.97-30.97,40.82-2.01.7-5.24-5.54-5.63-5.63-4-.97-29.76,5-19.71,8.45-5.81-1.45-13.15,4.82-16.89,5.63-23.89,5.17-32.07-.34-54.19,19.71-9.74,3.23-6.22-7.9-7.04-9.15s-15.26-9.18-16.19-9.15c-.79.03-10.68,5.86-14.08,7.04-9.93,3.45-10.33,5.09-18.3,8.45-2.18.92-13.19.49-15.48,1.41-5.83,2.34-8.7,15.06-16.89,16.89-.55.12-7.11-2.29-11.26-1.41-2.68.57-10.43,5.96-14.08,5.63-.63-.06-8.93-5.63-11.26-5.63-1.93,0-13.33,6.05-15.48,5.63-3.58-.7-4.56-8.78-4.93-9.15-4.33-4.26-8.67,4.4-10.56,4.93-8.11,2.26-23.12-1.2-29.56,0-2.64.49-41.64,12.83-43.63,14.08-2.4,1.5-3.51,9.92-9.85,11.26-10.15,2.15-20.01-7.56-26.74-4.22-.62.31-4.62,10.15-9.85,8.45-.6-9.18-9.93,1.76-9.15-8.45,4.1-2.52,13.53-13.35,14.78-14.08,5.36-3.11,19.46-2.61,24.63-10.56l-7.74-4.93-40.82,14.08c-1.61,1.06,2.35,3.31,2.11,3.52-14.78,13.28-8.26,2.35-23.22,3.52-.74.06-.42,4.12-4.22,4.22-9.5.26-3.67-12.91,2.11-16.19-7.32-2.56-13.78.93-20.41,3.52-5.86,2.29-21.24,12.66-29.56,15.48-.47.16-8.33-1.9-9.85-1.41-.62.2-4.45,5.88-8.45,7.04-5.69,1.64-15.55-.66-21.11,1.41-4.12,1.53-18.41,17-19.71,16.89-3.51-.29-2.71-7.64-4.22-8.45-1.88-1-12.07.81-15.48,0-47.56-11.3-44.45,11.22-73.9,38-3.54,3.22-10.85,5.64-15.48,11.96-.13.18,2.64,2.11,1.41,4.22-1.8,3.09-8.6-.67-5.63,14.78-10.65.45-12.23,4.39-15.48,5.63-4.12,1.57-16.45,8.37-19,8.45-7.33.2-22.57-8.11-33.78-5.63-4.64,1.03-9.18,10.05-9.85,9.85-3.19-.92-11.57-14.75-15.48-18.3-28.74-26.04-54.15-30.31-91.49-23.93-1.37.23-5.18,4.16-5.63,4.22-14.8,2.04-32.47-9.5-59.12-2.82-13.15,3.3-29.09,17.76-32.37,18.3-2.94.48-25.02-10.81-36.6-7.04-3.45,1.12-9.17,12.24-9.85,12.67-1.98,1.24-4.01-1.47-4.22-1.41-15.45,4.3-14.71-.62-25.34-1.41-1.6-.12-6.62,4.36-9.85,4.22-.63-.03-8.9-5.28-11.26-5.63-9.32-1.37-13.37-.68-21.82-2.82l-4.22-11.96c-18.46-21.7-61.18-26.7-83.05-9.15-8.22.44-13.76,4.76-17.59,5.63-5.99,1.36-1.85-3.82-2.82-4.22-5.01-2.1-12.94,5.93-18.3,5.63-2.02-.11-11.84-6.83-12.67-7.04-26.05-6.38-32.27-2.16-55.6,8.45l-1.41-9.15c-1.98-3.95-6.06.87-6.33.7-2.97-1.78-1.57-4.84-2.82-5.63-.43-.28-7.14-1.37-9.85-2.82-1.34-.72,2.28-3.4,0-4.22-4.93-1.77-14.73,2.33-22.52,0-1.83-.55-2.4-5.09-4.22-5.63-8.57-2.52-23.37,6.36-32.37-1.41-2.16,4.78,9.32,3.87,9.85,4.22,7.3,22.26,28.93,7.26,40.82,15.48,6.58,4.55,5.09,15.49-.7,19.71-14.15,10.3-33.64,3.62-48.56,5.63-9.98,1.34-27.45,4.54-38,7.04-4.83,1.14-10.95,10.89-20.41,4.93-1.24-.78-3.85-9.47-4.22-9.85-4.95-5.15-9.6-5.32-11.26-7.04-.72-.74-3.77-11.47-9.85-16.19.13.25,5.31,1.79,5.63.7-1.65-4.13-6.83-2.96-5.63-.7-5.83-4.52-20.2-7.11-24.63-9.85-13.19-8.16-32.6-24.86-46.45-32.37-3.34-1.81-7.91,1.19-12.67-1.41-2.88-1.57-4.79-7.47-8.45-9.85-8.55-5.58-22.07-3.35-30.97-9.85-6.97-5.09-13.63-19.33-19.71-23.93-4.04-3.06-26.95-11.56-33.78-14.08-5.39-1.98-11.51-.77-19-6.33-.26-.19,4.03-3-.7-6.33-4.32-3.05-30.42-.67-37.3,1.41-25.88-34.89-74.8-52.26-116.83-39.41Z"/>
      <path class="cls-6" d="M1418.81,489.83c-3.3-.53-5.75,1.56-8.45,2.82-17.43-7.67-42.66,7.53-50.67,23.93-3.93.91-5.43,5.53-6.33,5.63-1.1.12-11.66-8.8-19.71-9.85-19.4-2.54-44.77,6.71-57.01,21.82-3.47,4.28-12.05,24.18-13.37,24.63-2.77.95-10.48-5.37-12.67-5.63-13.27-1.61-29,4.1-40.82,9.85-2.72,1.32-7.18,8.59-9.85,9.85-.36.17-1.99-3.23-4.22-2.82-.29.06-1.93,4.03-4.22,4.22-2.79.24-16.39-12.88-22.52-14.08-15.77-3.08-36.22,3.83-48.56,14.08.13-3.46-2.63-2.74,0-6.33,1.94-2.65,14.28-8.44,13.37-13.37-5.82.95-25.12,18.51-26.74,18.3-2.18-.28,1.23-3.71,0-4.22-10.82-4.5-18.84,2.45-29.56,7.04-1.45.62-5.65-.63-7.04,0-8.45,3.82-15,15.61-25.34,14.08-.91-.13-9.58-8-14.08-8.45-10.56-1.05-23.27,14.96-30.97,14.08-.88-.1-14.18-7.47-15.48-8.45-2.06-1.54-5.6-11.04-9.85-12.67-3.4-1.3-15.59,4.12-21.11,2.82-.46-.11-1.84-4.16-2.11-4.22,5.23-10.25,12.63-3.72,23.22-5.63,2.75-.5,11.47-6.72,12.67-7.04.56-.15,8.11,4.1,11.26,2.82,2.5-1.02,20.14-22.34,23.93-23.93,7.86-3.3,22.24-.58,29.56-1.41.41-.05,4.8-4,7.04-4.22,3.95-.39,9.85,3.29,15.48,2.82.69-.06,3.54-4.18,4.22-4.22,4.2-.29,6.75,3.78,12.67,2.82,5.24-.86,10.87-11.93,14.78-12.67,1.08-.2,17.42,2.55,21.82,2.82,3.08.19,8.64-.09,9.85,0,8.88.66,26.81,8.08,35.19,2.82,3.51-2.21,7.87-16.1,9.15-17.59,6.57-7.66,15.47-11.46,21.11-22.52,1.1-2.15-1.91-4.18-1.41-5.63.39-1.12,19.24-11.76,20.41-11.96,6.42-1.14,13.33,1.61,18.3,1.41,1.31-.05,6.13-4.84,9.85-4.22,5.64.94,3.24,12.6,22.52,9.85,5.19-.74,14.03-7.52,18.3-8.45.76-.16,13.34,1.85,15.48,1.41s10.61-6.91,11.26-7.04c3.91-.75,8.9,1.6,9.85,1.41,1.31-.26,2.91-2.08,8.45-2.82,1.02-.14-.27,3.07,2.82,2.82,5.32-.44,12.84-16.57,21.11,9.85,3.61,1.13,14.05-14.45,15.48-15.48.39-.28,5.87.33,8.45-1.41,6.65-4.5,19.62-21.13,29.56-14.08,1.66,1.18.08,5.61.7,6.33,1.01,1.18,9.72,9.03,9.85,9.85.07.47-4.15,6.94-4.22,8.45-.37,7.83.83,13.91-1.41,21.82Z"/>
      <path class="cls-4" d="M1120.41,574.28c-8.82,7.32-19.95,31.74-21.82,32.37-3.16,1.08-6.57-2.33-8.45-1.41-1.72.84,1.72,1.98,0,2.82-24.71,12.06-42.33,2.34-64.75,19.71-4.6,3.57-14.37,17.87-15.48,18.3-3.6,1.4-7.59-2.79-8.45-2.82-.31,0-3.82,3.13-5.63,2.82-6.65-1.14-25.02-12.03-33.08-14.08-.44-.11-.97.11-1.41,0-4.51-4.71-16.6-10.77-22.52-12.67l9.85-.7c-3.65-6.13-40.48-12.85-23.93-16.89-5.11,4.46-14.76-18.56-14.08-19.71,3.96-6.64,9.49-.35,10.56-.7,1.9-.63,2.07-3.96,2.82-4.22,11.1-4,16.66-6.86,27.45-4.22.27.07,1.66,4.12,2.11,4.22,5.52,1.3,17.71-4.12,21.11-2.82,4.25,1.63,7.79,11.12,9.85,12.67,1.3.97,14.61,8.34,15.48,8.45,7.69.88,20.41-15.13,30.97-14.08,4.49.45,13.17,8.31,14.08,8.45,10.34,1.53,16.89-10.25,25.34-14.08,1.39-.63,5.58.62,7.04,0,10.72-4.59,18.74-11.54,29.56-7.04,1.23.51-2.18,3.94,0,4.22,1.62.21,20.93-17.35,26.74-18.3.91,4.93-11.43,10.72-13.37,13.37-2.63,3.59.13,2.87,0,6.33Z"/>
      <path class="cls-5" d="M1418.81,489.83c-4.47,15.82-17.9,13.08-27.45,19.71-3.61,2.5-7.67,11.16-9.85,12.67-3.22,2.22-26.52,16.69-28.15,16.89-16.9,2.06-27.19-16.05-50.67-9.85-14.29,3.77-32.09,30.43-38,32.37-2.97.98-18.17-3.31-25.34-2.82-10.71.75-35.54,14.11-47.86,18.3-3.16,1.07-11.91,8.38-12.67,8.45-3.9.33-4.06-4.59-9.85-2.82-15.74,4.81-24.25,10.45-38.71,21.11-.1.08-.44-2.64-2.11-1.41-6.89,5.08-10.77,14.3-16.89,18.3-11.35,7.41-17.21.38-25.34,4.22-5.38,2.54-7.05,12.73-7.74,13.37-8.05,7.57-16.17,10.6-26.04,11.96-10.66,1.47-31.85.93-45.04,7.04-9.83,4.55-9.17,15.75-12.67,16.89-12.91,4.22-21.04-23.35-26.04-31.67-.94-1.57-10.3-7.61-5.63-10.56,8.06,2.05,26.42,12.93,33.08,14.08,1.81.31,5.32-2.82,5.63-2.82.85.03,4.85,4.21,8.45,2.82,1.12-.43,10.88-14.73,15.48-18.3,22.42-17.37,40.03-7.65,64.75-19.71,1.72-.84-1.72-1.98,0-2.82,1.88-.92,5.28,2.49,8.45,1.41,1.87-.64,12.99-25.05,21.82-32.37,12.35-10.25,32.79-17.15,48.56-14.08,6.13,1.2,19.73,14.31,22.52,14.08,2.3-.2,3.93-4.17,4.22-4.22,2.23-.42,3.87,2.98,4.22,2.82,2.67-1.26,7.13-8.53,9.85-9.85,11.82-5.76,27.55-11.46,40.82-9.85,2.19.27,9.9,6.58,12.67,5.63,1.33-.45,9.9-20.35,13.37-24.63,12.24-15.1,37.61-24.36,57.01-21.82,8.05,1.05,18.61,9.97,19.71,9.85.91-.1,2.4-4.72,6.33-5.63,11.09-2.57,18.05,3.17,19,2.82s7.5-12.95,12.67-16.89,13.03-7.07,19-9.85c2.7-1.26,5.15-3.35,8.45-2.82Z"/>
      <path class="cls-6" d="M1106.34,522.2c-3.91.74-9.53,11.81-14.78,12.67-5.92.97-8.47-3.1-12.67-2.82-.68.05-3.53,4.16-4.22,4.22-5.63.47-11.53-3.2-15.48-2.82-2.24.22-6.63,4.18-7.04,4.22-7.32.83-21.7-1.89-29.56,1.41-3.79,1.59-21.43,22.91-23.93,23.93-3.15,1.28-10.7-2.96-11.26-2.82-1.2.31-9.92,6.54-12.67,7.04-10.59,1.91-18-4.62-23.22,5.63-10.79-2.63-16.35.22-27.45,4.22-.74.27-.92,3.59-2.82,4.22-1.07.35-6.59-5.93-10.56.7-.69,1.15,8.97,24.16,14.08,19.71-16.55,4.04,20.28,10.76,23.93,16.89l-9.85.7c-12.2-3.9-24.5-7.09-36.6-1.41-7.52-3.68-8.98-16.74-15.48-24.63-7.68-9.32-25.05-18.54-37.3-19-10.61-.4-33.89,12.35-35.89-4.93-1.54-13.33,35.19-10.89,40.12-13.37,1.83-.92,10.7-15.74,13.37-19s6.96-3.82,7.04-4.22c.1-.51-5.74-2.38-1.41-8.45,2.12-2.97,15.76-5.26,19-3.52.81.44-4.17,7.24,1.41,8.45,8.81,1.9,24.67-5.46,31.67,9.15-.55,4.38-36.01,6.07-32.37,14.08,7.83,7.56,16.73-3.09,20.41-3.52,10.2-1.18,23.51,6.01,30.26.7.28-.22-1.03-4.94,2.11-6.33,3.41-1.52,23.83,8.51,26.74,8.45,1.42-.03,20.95-14.31,23.93-15.48,2.77-1.09,15.46-.32,18.3-1.41,8.37-3.19,15.37-7.29,26.74-11.26,3.79-1.32,11.44-10.89,21.11-7.04,2.95,1.17-.1,5.63,2.11,7.74,5.27,5.03,10.09-2.02,11.96-2.11,9.57-.48,22.37,5.23,28.85-3.52l1.41,3.52Z"/>
      <path class="cls-5" d="M938.84,619.32c5.93,1.9,18.01,7.96,22.52,12.67-22.12-5.44-36.12-2.81-59.12-14.08,12.09-5.68,24.4-2.5,36.6,1.41Z"/>
      <path class="cls-5" d="M814.27,646.07c6.5-1.28,14.14,11.48,23.22,13.37-13.61,2.37-21.2,7.61-30.97-4.22-.04-.98,6.79-8.96,7.74-9.15Z"/>
      <path class="cls-5" d="M922.65,498.27c7.01-.69,9.9,4.14,18.3,1.41-4.53,14.4-23.04,9.45-34.49,9.15.02-1.22,13.91-10.33,16.19-10.56Z"/>
      <path class="cls-5" d="M757.26,643.25c-7.22-.43-17.85,4.19-21.82,2.82-4.26-1.47-3.47-5.43-4.22-5.63-5.64-1.46-13.82,1.36-20.41-3.52,13.36.19,28.71-4.06,39.41,0,.54.2-2.06,3.47,7.04,6.33Z"/>
      <path class="cls-4" d="M338.52,615.1c3.98-.61,22.04.13,17.59,7.74-1.18,2.01-20.47-3.28-23.93-5.63,1.96.04,5.68-2.01,6.33-2.11Z"/>
      <path class="cls-4" d="M336.4,643.25c12.26-.49,19.22-.19,29.56,6.33-10.25-1.64-18.47-6.3-29.56-6.33Z"/>
      <path class="cls-4" d="M402.56,655.92c-.18-.04.53,1.74-3.52,1.41s-12.59-10.51-17.59-11.26c10.19.97,2.54.98,6.33,2.82,5.02,2.43,9.58,4.92,14.78,7.04Z"/>
      <path class="cls-4" d="M425.08,661.55c-4.55.97-17.64-3.65-22.52-5.63.38.09,3.66-2.23,7.74-1.41.8.16,10.83,8.09,14.78,7.04Z"/>
      <path class="cls-5" d="M1181.64,496.87c2.94.3,6.51-.77,9.15.7,0,.64-9.32,2.03-9.15-.7Z"/>
      <path class="cls-4" d="M381.45,646.07c-.42-.06-5.06,1.42-8.45,1.41,2.62-.44,4.28-1.8,8.45-1.41Z"/>
      <polygon class="cls-4" points="425.08 661.55 430.71 658.03 430.01 661.55 425.08 661.55"/>
      <path class="cls-4" d="M350.48,677.03c-1.2-2.25,3.98-3.42,5.63.7-.32,1.08-5.5-.45-5.63-.7Z"/>
      <path class="cls-5" d="M698.85,641.84c1.4.15,6.29-.53,6.33.7-.77.93-7.44,1.72-6.33-.7Z"/>
      <path class="cls-4" d="M336.4,643.25c-.36,0-4.63,1.15-7.04,1.41,2.63-.58,4.03-1.29,7.04-1.41Z"/>
      <path class="cls-5" d="M1130.26,603.84c.23.06,2.49,4.07.7,4.22-1.38.11-3.47-4.93-.7-4.22Z"/>
      <path class="cls-4" d="M373,647.47c-.21,0-1.95,3.21-4.22-.7,1.77-2.28,2.9.92,4.22.7Z"/>
      <path class="cls-4" d="M329.37,644.66c-.29.03-3.3,1.09-5.63,1.41,2.62-.95,3.24-.88,5.63-1.41Z"/>
      <path class="cls-5" d="M1125.34,613.69c.69-.04.95,1.23.7,2.11-.8,5.24-2.5-2.01-.7-2.11Z"/>
      <path class="cls-4" d="M323.74,646.07c-.14.02-2.4,3.87-2.82-.7.97-1.65,1.66,1.12,2.82.7Z"/>
      <path class="cls-5" d="M757.26,643.25c1.22.38,3.21-.74,4.22.7-2.65,2.5-4.01-.69-4.22-.7Z"/>
      <path class="cls-5" d="M1410.37,492.64c-5.97,2.78-13.77,5.86-19,9.85s-11.68,16.52-12.67,16.89-7.91-5.38-19-2.82c8.01-16.4,33.24-31.6,50.67-23.93Z"/>
    </g>
  </g>
</svg>